<?xml version="1.0" encoding="UTF-8" standalone="no"?><!DOCTYPE svg PUBLIC "-//W3C//DTD SVG 1.1//EN" "http://www.w3.org/Graphics/SVG/1.1/DTD/svg11.dtd"><svg width="100%" height="100%" viewBox="0 0 2273 252" version="1.1" xmlns="http://www.w3.org/2000/svg" xmlns:xlink="http://www.w3.org/1999/xlink" xml:space="preserve" xmlns:serif="http://www.serif.com/" style="fill-rule:evenodd;clip-rule:evenodd;stroke-linejoin:round;stroke-miterlimit:1.41421;"><g><g><path d="M140.725,82.225c-13.65,-25.675 -35.1,-38.025 -67.275,-38.025c-44.85,0 -70.525,23.4 -70.525,53.95c0,57.85 82.225,49.4 82.225,69.875c0,7.15 -4.875,10.075 -15.6,10.075c-10.725,0 -25.675,-5.85 -34.45,-18.2l-35.1,20.475c15.6,25.35 37.7,37.05 71.5,37.05c41.275,0 70.525,-24.7 70.525,-55.575c0,-57.85 -81.9,-50.7 -81.9,-68.9c0,-6.175 4.55,-9.425 15.925,-9.425c11.05,0 23.4,2.925 30.55,14.625l34.125,-15.925Z" style="fill:#545454;fill-rule:nonzero;"/><path d="M267.475,53.95l-35.75,0l0,-37.7l-41.275,0l-15.6,36.075l-23.075,1.95l0,37.05l19.5,7.475l0,54.925c0,40.95 14.625,63.375 57.525,63.375c14.625,0 27.95,-2.925 39.325,-7.8l-3.575,-36.075c-4.225,0.975 -8.775,1.3 -12.675,1.3c-12.675,0 -20.15,-6.175 -20.15,-17.55l0,-61.425l35.75,0l0,-41.6Z" style="fill:#545454;fill-rule:nonzero;"/><path d="M325.325,105.3c7.475,-13 19.175,-18.525 29.25,-18.525c13,0 19.825,3.575 19.825,18.2l0,9.1l-8.45,0c-64.675,0 -81.25,27.625 -81.25,55.25c0,27.95 19.5,47.775 53.3,47.775c18.85,0 33.8,-4.55 46.8,-14.95c7.15,8.125 18.525,13.975 37.7,13.975c9.1,0 18.525,-1.95 26.65,-4.225l0,-31.2l-4.55,0c-6.5,0 -9.75,-3.575 -9.75,-8.775l0,-66.95c0,-32.175 -18.85,-60.775 -70.2,-60.775c-36.075,0 -59.8,16.25 -73.775,40.625l34.45,20.475Zm30.225,74.425c-7.8,0 -13,-2.925 -13,-14.625c0,-9.1 5.525,-15.275 23.075,-15.275l8.775,0l0,23.075c-4.875,3.9 -10.725,6.825 -18.85,6.825Z" style="fill:#545454;fill-rule:nonzero;"/><path d="M587.925,49.075c-4.875,-2.925 -12.025,-4.875 -19.825,-4.875c-17.55,0 -30.875,6.175 -41.925,26.325l-0.65,0l-1.95,-23.075l-52.975,0l0,166.725l60.775,0l0,-86.125c4.225,-21.45 13.65,-31.2 33.475,-31.2c6.5,0 13.325,1.625 17.875,4.875l5.2,-52.65Z" style="fill:#545454;fill-rule:nonzero;"/><path d="M712.725,53.95l-35.75,0l0,-37.7l-41.275,0l-15.6,36.075l-23.075,1.95l0,37.05l19.5,7.475l0,54.925c0,40.95 14.625,63.375 57.525,63.375c14.625,0 27.95,-2.925 39.325,-7.8l-3.575,-36.075c-4.225,0.975 -8.775,1.3 -12.675,1.3c-12.675,0 -20.15,-6.175 -20.15,-17.55l0,-61.425l35.75,0l0,-41.6Z" style="fill:#545454;fill-rule:nonzero;"/><path d="M838.175,161.525c-4.55,6.5 -12.675,10.725 -23.4,10.725c-13,0 -19.825,-7.15 -19.825,-25.675l0,-99.125l-60.775,0l0,98.8c0,43.55 21.45,71.175 59.15,71.175c19.825,0 36.075,-5.2 48.75,-16.9l0.65,0l1.625,13.65l54.6,0l0,-166.725l-60.775,0l0,114.075Z" style="fill:#545454;fill-rule:nonzero;"/><path d="M1033.5,216.45c42.575,0 64.025,-27.625 64.025,-71.175l0,-29.9c0,-43.875 -21.45,-71.175 -58.825,-71.175c-20.15,0 -36.725,5.525 -49.725,17.225l-0.65,0l-0.975,-13.975l-54.6,0l0,203.125l60.775,0l0,-45.175l0.65,0c11.375,7.8 25.025,11.05 39.325,11.05Zm-39.975,-114.4c4.875,-6.5 12.675,-10.4 23.4,-10.4c13.325,0 19.825,6.825 19.825,25.675l0,28.275c0,20.15 -7.475,26.65 -21.45,26.65c-10.075,0 -16.9,-3.575 -21.775,-9.75l0,-60.45Z" style="fill:#545454;fill-rule:nonzero;"/></g><g><path d="M1436.86,82.225c-13.65,-25.675 -35.1,-38.025 -67.275,-38.025c-44.85,0 -70.525,23.4 -70.525,53.95c0,57.85 82.225,49.4 82.225,69.875c0,7.15 -4.875,10.075 -15.6,10.075c-10.725,0 -25.675,-5.85 -34.45,-18.2l-35.1,20.475c15.6,25.35 37.7,37.05 71.5,37.05c41.275,0 70.525,-24.7 70.525,-55.575c0,-57.85 -81.9,-50.7 -81.9,-68.9c0,-6.175 4.55,-9.425 15.925,-9.425c11.05,0 23.4,2.925 30.55,14.625l34.125,-15.925Z" style="fill:#f5d6ba;fill-rule:nonzero;"/><path d="M1563.61,53.95l-35.75,0l0,-37.7l-41.275,0l-15.6,36.075l-23.075,1.95l0,37.05l19.5,7.475l0,54.925c0,40.95 14.625,63.375 57.525,63.375c14.625,0 27.95,-2.925 39.325,-7.8l-3.575,-36.075c-4.225,0.975 -8.775,1.3 -12.675,1.3c-12.675,0 -20.15,-6.175 -20.15,-17.55l0,-61.425l35.75,0l0,-41.6Z" style="fill:#f5d6ba;fill-rule:nonzero;"/><path d="M1591.24,53.95l0,160.225l60.775,0l0,-160.225l-60.775,0Zm4.875,-52.65l0,36.4l51.025,0l0,-36.4l-51.025,0Z" style="fill:#f5d6ba;fill-rule:nonzero;"/><path d="M1805.74,49.075c-4.875,-2.925 -12.025,-4.875 -19.825,-4.875c-17.55,0 -30.875,6.175 -41.925,26.325l-0.65,0l-1.95,-23.075l-52.975,0l0,166.725l60.775,0l0,-86.125c4.225,-21.45 13.65,-31.2 33.475,-31.2c6.5,0 13.325,1.625 17.875,4.875l5.2,-52.65Z" style="fill:#f5d6ba;fill-rule:nonzero;"/><path d="M1933.14,56.225l-35.1,0l0,-0.325c0,-12.675 5.2,-17.55 33.8,-18.2l-2.925,-37.7c-66.625,0.65 -88.725,21.775 -88.725,56.225l-17.225,0l0,41.275l17.225,0l0,116.675l60.775,0l0,-116.675l32.175,0l0,-41.275Z" style="fill:#f5d6ba;fill-rule:nonzero;"/><path d="M2071.59,49.075c-4.875,-2.925 -12.025,-4.875 -19.825,-4.875c-17.55,0 -30.875,6.175 -41.925,26.325l-0.65,0l-1.95,-23.075l-52.975,0l0,166.725l60.775,0l0,-86.125c4.225,-21.45 13.65,-31.2 33.475,-31.2c6.5,0 13.325,1.625 17.875,4.875l5.2,-52.65Z" style="fill:#f5d6ba;fill-rule:nonzero;"/><path d="M2272.76,47.45l-63.375,0l-27.625,87.1l-34.45,-87.1l-67.925,0l72.15,141.05l-0.975,2.275c-6.5,14.95 -17.225,20.15 -37.375,21.775l2.925,39.325c47.125,-0.975 72.15,-15.275 91.325,-58.175l65.325,-146.25Z" style="fill:#f5d6ba;fill-rule:nonzero;"/></g></g></svg>