<?xml version="1.0" encoding="UTF-8" standalone="no"?>
<!DOCTYPE svg PUBLIC "-//W3C//DTD SVG 1.1//EN" "http://www.w3.org/Graphics/SVG/1.1/DTD/svg11.dtd">
<svg width="100%" height="100%" viewBox="0 0 163 76" version="1.1" xmlns="http://www.w3.org/2000/svg" xmlns:xlink="http://www.w3.org/1999/xlink" xml:space="preserve" xmlns:serif="http://www.serif.com/" style="fill-rule:evenodd;clip-rule:evenodd;stroke-linejoin:round;stroke-miterlimit:1.41421;">
    <g transform="matrix(1,0,0,1,-9005.77,-2128.58)">
        <g transform="matrix(1,0,0,0.556317,-0.114047,728.088)">
            <g id="carrots">
                <g transform="matrix(1.26268,-0.357039,0.198627,2.26972,-2737.31,952.465)">
                    <path d="M9008.36,2133.45L9005.77,2141.73L9006.19,2156.19L9027.02,2169.06L9051.63,2171.3L9060.66,2162.48L9064.17,2150.09L9055.13,2139.84L9027.81,2130.54L9008.36,2133.45" style="fill:rgb(255,168,113);"/>
                    <clipPath id="_clip1">
                        <path d="M9008.36,2133.45L9005.77,2141.73L9006.19,2156.19L9027.02,2169.06L9051.63,2171.3L9060.66,2162.48L9064.17,2150.09L9055.13,2139.84L9027.81,2130.54L9008.36,2133.45"/>
                    </clipPath>
                    <g clip-path="url(#_clip1)">
                        <path d="M9008.46,2130.56L9010.17,2143.35L9030.8,2157.29L9066.75,2161.53L9062.37,2175.36L9020.29,2174.33L8997.96,2151.54L9003.55,2135.55L9008.46,2130.56Z" style="fill:rgb(218,144,96);"/>
                    </g>
                </g>
                <g transform="matrix(0.801461,1.12664,-0.697686,1.60366,3403.58,-11030.5)">
                    <path d="M9008.36,2133.45L9005.77,2141.73L9006.19,2156.19L9027.02,2169.06L9051.63,2171.3L9060.66,2162.48L9064.17,2150.09L9055.13,2139.84L9027.81,2130.54L9008.36,2133.45" style="fill:rgb(255,168,113);"/>
                    <clipPath id="_clip2">
                        <path d="M9008.36,2133.45L9005.77,2141.73L9006.19,2156.19L9027.02,2169.06L9051.63,2171.3L9060.66,2162.48L9064.17,2150.09L9055.13,2139.84L9027.81,2130.54L9008.36,2133.45"/>
                    </clipPath>
                    <g clip-path="url(#_clip2)">
                        <path d="M9008.46,2130.56L9010.17,2143.35L9030.8,2157.29L9055.91,2159.73L9051.53,2173.56L9020.29,2174.33L8997.96,2151.54L9003.55,2135.55L9008.46,2130.56Z" style="fill:rgb(218,144,96);"/>
                    </g>
                </g>
                <g id="carrot2" transform="matrix(1,0,0,1.79754,0.114047,-1308.76)">
                    <path d="M9055.55,2132.26L9064.46,2128.58L9078.41,2131.75L9085.21,2139.28L9083.2,2146.56L9078.76,2150.72L9064.89,2150.95L9054.19,2144.08L9053.95,2139.44L9055.55,2132.26Z" style="fill:rgb(255,168,113);"/>
                    <clipPath id="_clip3">
                        <path d="M9055.55,2132.26L9064.46,2128.58L9078.41,2131.75L9085.21,2139.28L9083.2,2146.56L9078.76,2150.72L9064.89,2150.95L9054.19,2144.08L9053.95,2139.44L9055.55,2132.26Z"/>
                    </clipPath>
                    <g clip-path="url(#_clip3)">
                        <path d="M9077.42,2160.54L9079.68,2143.7L9066.01,2143.79L9056.32,2138.02L9055.48,2132.1L9050.76,2145.1L9077.42,2160.54Z" style="fill:rgb(218,144,96);"/>
                    </g>
                </g>
                <g transform="matrix(1,0,0,1.79754,0.114047,-1308.76)">
                    <path d="M9008.36,2133.45L9005.77,2141.73L9006.19,2156.19L9027.02,2169.06L9051.63,2171.3L9060.66,2162.48L9064.17,2150.09L9055.13,2139.84L9027.81,2130.54L9008.36,2133.45" style="fill:rgb(255,168,113);"/>
                    <clipPath id="_clip4">
                        <path d="M9008.36,2133.45L9005.77,2141.73L9006.19,2156.19L9027.02,2169.06L9051.63,2171.3L9060.66,2162.48L9064.17,2150.09L9055.13,2139.84L9027.81,2130.54L9008.36,2133.45"/>
                    </clipPath>
                    <g clip-path="url(#_clip4)">
                        <path d="M9008.46,2130.56L9010.17,2143.35L9030.8,2157.29L9055.91,2159.73L9051.53,2173.56L9020.29,2174.33L8997.96,2151.54L9003.55,2135.55L9008.46,2130.56Z" style="fill:rgb(218,144,96);"/>
                    </g>
                </g>
            </g>
        </g>
    </g>
</svg>
