<?xml version="1.0" encoding="UTF-8" standalone="no"?>
<!DOCTYPE svg PUBLIC "-//W3C//DTD SVG 1.1//EN" "http://www.w3.org/Graphics/SVG/1.1/DTD/svg11.dtd">
<svg width="100%" height="100%" viewBox="0 0 280 203" version="1.1" xmlns="http://www.w3.org/2000/svg" xmlns:xlink="http://www.w3.org/1999/xlink" xml:space="preserve" xmlns:serif="http://www.serif.com/" style="fill-rule:evenodd;clip-rule:evenodd;stroke-linecap:round;stroke-linejoin:round;stroke-miterlimit:1.5;">
    <g transform="matrix(1,0,0,1,-8565.57,-2040.74)">
        <g transform="matrix(1,0,0,0.556317,-0.114047,728.088)">
            <g transform="matrix(1,0,0,1.79754,0.114047,-1308.76)">
                <rect x="8565.57" y="2040.74" width="279.296" height="202.102" style="fill:white;"/>
                <clipPath id="_clip1">
                    <rect x="8565.57" y="2040.74" width="279.296" height="202.102"/>
                </clipPath>
                <g clip-path="url(#_clip1)">
                    <g transform="matrix(1.71737,0,-1.19167e-17,0.955405,-6187.24,-166.509)">
                        <g id="_-Group-" serif:id="(Group)">
                            <g id="grid">
                                <g transform="matrix(1,0,0,1.79754,-17.7662,-1308.76)">
                                    <path d="M8608.57,2014.01L8608.57,2254.13" style="fill:none;stroke:rgb(252,176,252);stroke-width:0.8px;"/>
                                </g>
                                <g transform="matrix(1,0,0,1.79754,17.8945,-1308.76)">
                                    <path d="M8608.57,2014.01L8608.57,2254.13" style="fill:none;stroke:rgb(252,176,252);stroke-width:0.8px;"/>
                                </g>
                                <g transform="matrix(1,0,0,1.79754,53.5551,-1308.76)">
                                    <path d="M8608.57,2014.01L8608.57,2254.13" style="fill:none;stroke:rgb(252,176,252);stroke-width:0.8px;"/>
                                </g>
                                <g transform="matrix(1,0,0,1.79754,89.2158,-1308.76)">
                                    <path d="M8608.57,2014.01L8608.57,2254.13" style="fill:none;stroke:rgb(252,176,252);stroke-width:0.8px;"/>
                                </g>
                                <g transform="matrix(1,0,2.76954e-33,1.79754,123.86,-1308.76)">
                                    <path d="M8608.57,2014.01L8608.57,2254.13" style="fill:none;stroke:rgb(252,176,252);stroke-width:0.8px;"/>
                                </g>
                                <g transform="matrix(1,0,0,1.79754,-0.0915243,-1308.76)">
                                    <path d="M8608.57,2014.01L8608.57,2254.13" style="fill:none;stroke:rgb(252,176,252);stroke-width:0.8px;"/>
                                </g>
                                <g transform="matrix(1,0,0,1.79754,35.5692,-1308.76)">
                                    <path d="M8608.57,2014.01L8608.57,2254.13" style="fill:none;stroke:rgb(252,176,252);stroke-width:0.8px;"/>
                                </g>
                                <g transform="matrix(1,0,0,1.79754,71.2298,-1308.76)">
                                    <path d="M8608.57,2014.01L8608.57,2254.13" style="fill:none;stroke:rgb(252,176,252);stroke-width:0.8px;"/>
                                </g>
                                <g transform="matrix(1,0,0,1.79754,106.891,-1308.76)">
                                    <path d="M8608.57,2014.01L8608.57,2254.13" style="fill:none;stroke:rgb(252,176,252);stroke-width:0.8px;"/>
                                </g>
                                <g transform="matrix(1,0,2.76954e-33,1.79754,141.535,-1308.76)">
                                    <path d="M8608.57,2014.01L8608.57,2254.13" style="fill:none;stroke:rgb(252,176,252);stroke-width:0.8px;"/>
                                </g>
                                <g transform="matrix(1,0,0,1.79754,-9.03092,-1308.76)">
                                    <path d="M8608.57,2014.01L8608.57,2254.13" style="fill:none;stroke:rgb(252,176,252);stroke-width:0.8px;"/>
                                </g>
                                <g transform="matrix(1,0,0,1.79754,26.6298,-1308.76)">
                                    <path d="M8608.57,2014.01L8608.57,2254.13" style="fill:none;stroke:rgb(252,176,252);stroke-width:0.8px;"/>
                                </g>
                                <g transform="matrix(1,0,0,1.79754,62.2904,-1308.76)">
                                    <path d="M8608.57,2014.01L8608.57,2254.13" style="fill:none;stroke:rgb(252,176,252);stroke-width:0.8px;"/>
                                </g>
                                <g transform="matrix(1,0,0,1.79754,97.9511,-1308.76)">
                                    <path d="M8608.57,2014.01L8608.57,2254.13" style="fill:none;stroke:rgb(252,176,252);stroke-width:0.8px;"/>
                                </g>
                                <g transform="matrix(1,0,2.76954e-33,1.79754,132.595,-1308.76)">
                                    <path d="M8608.57,2014.01L8608.57,2254.13" style="fill:none;stroke:rgb(252,176,252);stroke-width:0.8px;"/>
                                </g>
                                <g transform="matrix(1,0,0,1.79754,8.64377,-1308.76)">
                                    <path d="M8608.57,2014.01L8608.57,2254.13" style="fill:none;stroke:rgb(252,176,252);stroke-width:0.8px;"/>
                                </g>
                                <g transform="matrix(1,0,0,1.79754,44.3044,-1308.76)">
                                    <path d="M8608.57,2014.01L8608.57,2254.13" style="fill:none;stroke:rgb(252,176,252);stroke-width:0.8px;"/>
                                </g>
                                <g transform="matrix(1,0,0,1.79754,79.9651,-1308.76)">
                                    <path d="M8608.57,2014.01L8608.57,2254.13" style="fill:none;stroke:rgb(252,176,252);stroke-width:0.8px;"/>
                                </g>
                                <g transform="matrix(1,0,0,1.79754,115.626,-1308.76)">
                                    <path d="M8608.57,2014.01L8608.57,2254.13" style="fill:none;stroke:rgb(252,176,252);stroke-width:0.8px;"/>
                                </g>
                            </g>
                        </g>
                    </g>
                    <g transform="matrix(1.05159e-16,1.71737,-1.21082,5.90391e-17,11717.7,-12742.4)">
                        <g id="_-Group-1" serif:id="(Group)">
                            <g id="grid1" serif:id="grid">
                                <g transform="matrix(1,0,0,1.79754,17.8945,-1308.76)">
                                    <path d="M8608.57,2014.01L8608.57,2254.13" style="fill:none;stroke:rgb(252,176,252);stroke-width:0.8px;"/>
                                </g>
                                <g transform="matrix(1,0,0,1.79754,53.5551,-1308.76)">
                                    <path d="M8608.57,2014.01L8608.57,2254.13" style="fill:none;stroke:rgb(252,176,252);stroke-width:0.8px;"/>
                                </g>
                                <g transform="matrix(1,0,0,1.79754,89.2158,-1308.76)">
                                    <path d="M8608.57,2014.01L8608.57,2254.13" style="fill:none;stroke:rgb(252,176,252);stroke-width:0.8px;"/>
                                </g>
                                <g transform="matrix(1,0,0,1.79754,-0.0915243,-1308.76)">
                                    <path d="M8608.57,2014.01L8608.57,2254.13" style="fill:none;stroke:rgb(252,176,252);stroke-width:0.8px;"/>
                                </g>
                                <g transform="matrix(1,0,0,1.79754,35.5692,-1308.76)">
                                    <path d="M8608.57,2014.01L8608.57,2254.13" style="fill:none;stroke:rgb(252,176,252);stroke-width:0.8px;"/>
                                </g>
                                <g transform="matrix(1,0,0,1.79754,71.2298,-1308.76)">
                                    <path d="M8608.57,2014.01L8608.57,2254.13" style="fill:none;stroke:rgb(252,176,252);stroke-width:0.8px;"/>
                                </g>
                                <g transform="matrix(1,0,0,1.79754,106.891,-1308.76)">
                                    <path d="M8608.57,2014.01L8608.57,2254.13" style="fill:none;stroke:rgb(252,176,252);stroke-width:0.8px;"/>
                                </g>
                                <g transform="matrix(1,0,0,1.79754,26.6298,-1308.76)">
                                    <path d="M8608.57,2014.01L8608.57,2254.13" style="fill:none;stroke:rgb(252,176,252);stroke-width:0.8px;"/>
                                </g>
                                <g transform="matrix(1,0,0,1.79754,62.2904,-1308.76)">
                                    <path d="M8608.57,2014.01L8608.57,2254.13" style="fill:none;stroke:rgb(252,176,252);stroke-width:0.8px;"/>
                                </g>
                                <g transform="matrix(1,0,0,1.79754,97.9511,-1308.76)">
                                    <path d="M8608.57,2014.01L8608.57,2254.13" style="fill:none;stroke:rgb(252,176,252);stroke-width:0.8px;"/>
                                </g>
                                <g transform="matrix(1,0,0,1.79754,8.64377,-1308.76)">
                                    <path d="M8608.57,2014.01L8608.57,2254.13" style="fill:none;stroke:rgb(252,176,252);stroke-width:0.8px;"/>
                                </g>
                                <g transform="matrix(1,0,0,1.79754,44.3044,-1308.76)">
                                    <path d="M8608.57,2014.01L8608.57,2254.13" style="fill:none;stroke:rgb(252,176,252);stroke-width:0.8px;"/>
                                </g>
                                <g transform="matrix(1,0,0,1.79754,79.9651,-1308.76)">
                                    <path d="M8608.57,2014.01L8608.57,2254.13" style="fill:none;stroke:rgb(252,176,252);stroke-width:0.8px;"/>
                                </g>
                                <g transform="matrix(1,0,0,1.79754,115.626,-1308.76)">
                                    <path d="M8608.57,2014.01L8608.57,2254.13" style="fill:none;stroke:rgb(252,176,252);stroke-width:0.8px;"/>
                                </g>
                            </g>
                        </g>
                    </g>
                </g>
            </g>
        </g>
    </g>
</svg>
