<?xml version="1.0" encoding="UTF-8" standalone="no"?>
<!DOCTYPE svg PUBLIC "-//W3C//DTD SVG 1.1//EN" "http://www.w3.org/Graphics/SVG/1.1/DTD/svg11.dtd">
<svg width="100%" height="100%" viewBox="0 0 233 173" version="1.1" xmlns="http://www.w3.org/2000/svg" xmlns:xlink="http://www.w3.org/1999/xlink" xml:space="preserve" xmlns:serif="http://www.serif.com/" style="fill-rule:evenodd;clip-rule:evenodd;stroke-linecap:round;stroke-linejoin:round;stroke-miterlimit:1.5;">
    <g transform="matrix(1,0,0,1,-8584.88,-2053.51)">
        <g transform="matrix(1,0,0,0.556317,-0.114047,728.088)">
            <g id="Vector-Pepper" serif:id="Vector Pepper" transform="matrix(1,0,0,1,1,0)">
                <g transform="matrix(1,0,0,1.79754,-0.885953,-1308.76)">
                    <path d="M8712.38,2083.62L8716.08,2081.18L8709.01,2068.77L8694.49,2056.39L8669.64,2056.14L8661.52,2059.11L8646.08,2056.58L8627.44,2055.94L8620.35,2058.81L8611.22,2068.18L8603.37,2068.3L8587.32,2086.12L8587.32,2109.14L8617.32,2186.28L8628.49,2199.58L8637.4,2199.41L8654.12,2212.07L8676.07,2211.76L8695.44,2202.08" style="fill:none;"/>
                    <clipPath id="_clip1">
                        <path d="M8712.38,2083.62L8716.08,2081.18L8709.01,2068.77L8694.49,2056.39L8669.64,2056.14L8661.52,2059.11L8646.08,2056.58L8627.44,2055.94L8620.35,2058.81L8611.22,2068.18L8603.37,2068.3L8587.32,2086.12L8587.32,2109.14L8617.32,2186.28L8628.49,2199.58L8637.4,2199.41L8654.12,2212.07L8676.07,2211.76L8695.44,2202.08"/>
                    </clipPath>
                    <g clip-path="url(#_clip1)">
                        <g transform="matrix(1,0,0,1,58.781,76.0026)">
                            <path d="M8611.56,2000.04L8620.38,2007.48L8610.42,2019.45L8589.31,2020.48L8578.4,2021.33L8571.07,2013.57L8571.4,2003.86L8577.74,2003.63L8589.61,1996.54L8595.79,1996.11" style="fill:none;stroke:rgb(59,200,236);stroke-width:4px;"/>
                        </g>
                        <g transform="matrix(1,0,0,1,58.781,76.0026)">
                            <path d="M8600.11,1987.1L8604.48,1984.23L8613.04,1986.13L8610.9,2006.19L8614.72,2007.18L8607.95,2013.26L8582.73,2015.18L8577.99,2006.57L8588.8,1999.69L8594.07,1999.69L8600.11,1987.1Z" style="fill:none;stroke:rgb(59,200,236);stroke-width:4px;"/>
                        </g>
                    </g>
                    <path d="M8712.38,2083.62L8716.08,2081.18L8709.01,2068.77L8694.49,2056.39L8669.64,2056.14L8661.52,2059.11L8646.08,2056.58L8627.44,2055.94L8620.35,2058.81L8611.22,2068.18L8603.37,2068.3L8587.32,2086.12L8587.32,2109.14L8617.32,2186.28L8628.49,2199.58L8637.4,2199.41L8654.12,2212.07L8676.07,2211.76L8695.44,2202.08" style="fill:none;stroke:rgb(59,200,236);stroke-width:4.86px;"/>
                </g>
                <g transform="matrix(-0.910147,-0.0962651,-0.0541598,1.65453,16685.9,-18.188)">
                    <path d="M8528.53,2010.12L8528.53,2033.14L8558.54,2110.27L8569.71,2123.57L8578.61,2123.41L8595.34,2136.07L8617.29,2135.75L8647.38,2124.32L8662.86,2103.6L8657.94,2007.4L8650.23,1992.77L8635.7,1980.38L8610.86,1980.13L8602.74,1983.1L8587.3,1980.57L8568.66,1979.94L8561.57,1982.8L8552.44,1992.18L8544.59,1992.29L8528.53,2010.12" style="fill:none;"/>
                    <clipPath id="_clip2">
                        <path d="M8528.53,2010.12L8528.53,2033.14L8558.54,2110.27L8569.71,2123.57L8578.61,2123.41L8595.34,2136.07L8617.29,2135.75L8647.38,2124.32L8662.86,2103.6L8657.94,2007.4L8650.23,1992.77L8635.7,1980.38L8610.86,1980.13L8602.74,1983.1L8587.3,1980.57L8568.66,1979.94L8561.57,1982.8L8552.44,1992.18L8544.59,1992.29L8528.53,2010.12"/>
                    </clipPath>
                    <g clip-path="url(#_clip2)">
                        <path d="M8604.43,1996.31L8620.38,2007.48L8612.4,2021.85L8588.14,2020.1L8578.4,2021.33L8571.07,2013.57L8571.4,2003.86L8577.74,2003.63L8589.61,1996.54" style="fill:none;stroke:rgb(59,200,236);stroke-width:4.36px;"/>
                        <path d="M8590.22,1989.97L8594.58,1987.11L8603.15,1989.01L8605.61,2001.03L8610.9,2006.19L8614.72,2007.18L8607.95,2013.26L8582.73,2015.18L8577.99,2006.57L8586.94,1999.97L8590.22,1989.97Z" style="fill:none;stroke:rgb(59,200,236);stroke-width:4.36px;"/>
                    </g>
                    <path d="M8528.53,2010.12L8528.53,2033.14L8558.54,2110.27L8569.71,2123.57L8578.61,2123.41L8595.34,2136.07L8617.29,2135.75L8647.38,2124.32L8662.86,2103.6L8657.94,2007.4L8650.23,1992.77L8635.7,1980.38L8610.86,1980.13L8602.74,1983.1L8587.3,1980.57L8568.66,1979.94L8561.57,1982.8L8552.44,1992.18L8544.59,1992.29L8528.53,2010.12" style="fill:none;stroke:rgb(59,200,236);stroke-width:4.36px;"/>
                </g>
            </g>
        </g>
    </g>
</svg>
