<?xml version="1.0" encoding="UTF-8" standalone="no"?>
<!DOCTYPE svg PUBLIC "-//W3C//DTD SVG 1.1//EN" "http://www.w3.org/Graphics/SVG/1.1/DTD/svg11.dtd">
<svg width="100%" height="100%" viewBox="0 0 229 168" version="1.1" xmlns="http://www.w3.org/2000/svg" xmlns:xlink="http://www.w3.org/1999/xlink" xml:space="preserve" xmlns:serif="http://www.serif.com/" style="fill-rule:evenodd;clip-rule:evenodd;stroke-linejoin:round;stroke-miterlimit:1.41421;">
    <g transform="matrix(1,0,0,1,-8586.31,-2055.94)">
        <g transform="matrix(1,0,0,0.556317,-0.114047,728.088)">
            <g id="Vector-Pepper" serif:id="Vector Pepper">
                <g transform="matrix(1,0,0,1.79754,57.895,-1172.15)">
                    <path d="M8528.53,2010.12L8528.53,2033.14L8558.54,2110.27L8569.71,2123.57L8578.61,2123.41L8595.34,2136.07L8617.29,2135.75L8647.38,2124.32L8662.86,2103.6L8657.94,2007.4L8650.23,1992.77L8635.7,1980.38L8610.86,1980.13L8602.74,1983.1L8587.3,1980.57L8568.66,1979.94L8561.57,1982.8L8552.44,1992.18L8544.59,1992.29L8528.53,2010.12" style="fill:rgb(250,78,64);"/>
                    <clipPath id="_clip1">
                        <path d="M8528.53,2010.12L8528.53,2033.14L8558.54,2110.27L8569.71,2123.57L8578.61,2123.41L8595.34,2136.07L8617.29,2135.75L8647.38,2124.32L8662.86,2103.6L8657.94,2007.4L8650.23,1992.77L8635.7,1980.38L8610.86,1980.13L8602.74,1983.1L8587.3,1980.57L8568.66,1979.94L8561.57,1982.8L8552.44,1992.18L8544.59,1992.29L8528.53,2010.12"/>
                    </clipPath>
                    <g clip-path="url(#_clip1)">
                        <path d="M8571.4,2003.86L8577.74,2003.63L8589.61,1996.54L8604.43,1996.31L8620.38,2007.48L8607.83,2017.45L8588.39,2015.87L8578.4,2021.33L8571.07,2013.57L8571.4,2003.86Z" style="fill:rgb(40,59,0);"/>
                        <path d="M8600.11,1987.1L8604.48,1984.23L8613.04,1986.13L8610.9,2006.19L8614.72,2007.18L8607.95,2013.26L8582.73,2015.18L8577.99,2006.57L8588.8,1999.69L8594.07,1999.69L8600.11,1987.1Z" style="fill:rgb(62,131,0);"/>
                    </g>
                </g>
                <g transform="matrix(-0.910147,-0.0962651,-0.0541598,1.65453,16685.9,-18.188)">
                    <path d="M8528.53,2010.12L8528.53,2033.14L8558.54,2110.27L8569.71,2123.57L8578.61,2123.41L8595.34,2136.07L8617.29,2135.75L8647.38,2124.32L8662.86,2103.6L8657.94,2007.4L8650.23,1992.77L8635.7,1980.38L8610.86,1980.13L8602.74,1983.1L8587.3,1980.57L8568.66,1979.94L8561.57,1982.8L8552.44,1992.18L8544.59,1992.29L8528.53,2010.12" style="fill:rgb(61,183,19);"/>
                    <clipPath id="_clip2">
                        <path d="M8528.53,2010.12L8528.53,2033.14L8558.54,2110.27L8569.71,2123.57L8578.61,2123.41L8595.34,2136.07L8617.29,2135.75L8647.38,2124.32L8662.86,2103.6L8657.94,2007.4L8650.23,1992.77L8635.7,1980.38L8610.86,1980.13L8602.74,1983.1L8587.3,1980.57L8568.66,1979.94L8561.57,1982.8L8552.44,1992.18L8544.59,1992.29L8528.53,2010.12"/>
                    </clipPath>
                    <g clip-path="url(#_clip2)">
                        <path d="M8571.4,2003.86L8577.74,2003.63L8589.61,1996.54L8604.43,1996.31L8620.38,2007.48L8607.83,2017.45L8588.39,2015.87L8578.4,2021.33L8571.07,2013.57L8571.4,2003.86Z" style="fill:rgb(40,59,0);"/>
                        <path d="M8590.22,1989.97L8594.58,1987.11L8603.15,1989.01L8605.61,2001.03L8610.9,2006.19L8614.72,2007.18L8607.95,2013.26L8582.73,2015.18L8577.99,2006.57L8586.94,1999.97L8590.22,1989.97Z" style="fill:rgb(62,131,0);"/>
                    </g>
                </g>
            </g>
        </g>
    </g>
</svg>
