<?xml version="1.0" encoding="UTF-8" standalone="no"?><!DOCTYPE svg PUBLIC "-//W3C//DTD SVG 1.1//EN" "http://www.w3.org/Graphics/SVG/1.1/DTD/svg11.dtd"><svg width="100%" height="100%" viewBox="0 0 2322 1215" version="1.1" xmlns="http://www.w3.org/2000/svg" xmlns:xlink="http://www.w3.org/1999/xlink" xml:space="preserve" xmlns:serif="http://www.serif.com/" style="fill-rule:evenodd;clip-rule:evenodd;stroke-linejoin:round;stroke-miterlimit:1.41421;"><rect id="Logo_Full_Color" x="0" y="0" width="2321.3" height="1214.96" style="fill:none;"/><g><path d="M2054.73,638.004c0,250.483 -203.361,453.844 -453.844,453.844c-250.483,0 -453.844,-203.361 -453.844,-453.844c0,-250.483 203.361,-453.844 453.844,-453.844c250.483,0 453.844,203.361 453.844,453.844Z" style="fill:#545454;"/><path d="M747.368,1023l-38.013,-105.519l541.196,-165.16l19.006,52.759l-522.189,217.92Z" style="fill:#545454;"/></g><g><g><path d="M385.107,615.697c-10.237,-19.256 -26.325,-28.518 -50.456,-28.518c-33.638,0 -52.894,17.55 -52.894,40.462c0,43.388 61.669,37.05 61.669,52.406c0,5.363 -3.656,7.557 -11.7,7.557c-8.044,0 -19.256,-4.388 -25.838,-13.65l-26.325,15.356c11.7,19.012 28.275,27.787 53.625,27.787c30.957,0 52.894,-18.525 52.894,-41.681c0,-43.387 -61.425,-38.025 -61.425,-51.675c0,-4.631 3.413,-7.069 11.944,-7.069c8.287,0 17.55,2.194 22.912,10.969l25.594,-11.944Z" style="fill:#545454;fill-rule:nonzero;"/><path d="M480.17,594.491l-26.813,0l0,-28.275l-30.956,0l-11.7,27.056l-17.306,1.463l0,27.787l14.625,5.607l0,41.193c0,30.713 10.968,47.532 43.143,47.532c10.969,0 20.963,-2.194 29.494,-5.85l-2.681,-27.057c-3.169,0.732 -6.581,0.975 -9.506,0.975c-9.507,0 -15.113,-4.631 -15.113,-13.162l0,-46.069l26.813,0l0,-31.2Z" style="fill:#545454;fill-rule:nonzero;"/><path d="M523.557,633.004c5.606,-9.75 14.381,-13.894 21.938,-13.894c9.75,0 14.868,2.681 14.868,13.65l0,6.825l-6.337,0c-48.506,0 -60.938,20.719 -60.938,41.437c0,20.963 14.625,35.832 39.975,35.832c14.138,0 25.35,-3.413 35.1,-11.213c5.363,6.094 13.894,10.481 28.275,10.481c6.825,0 13.894,-1.462 19.988,-3.168l0,-23.4l-3.413,0c-4.875,0 -7.312,-2.682 -7.312,-6.582l0,-50.212c0,-24.131 -14.138,-45.581 -52.65,-45.581c-27.056,0 -44.85,12.187 -55.331,30.468l25.837,15.357Zm22.669,55.818c-5.85,0 -9.75,-2.193 -9.75,-10.968c0,-6.825 4.144,-11.457 17.306,-11.457l6.581,0l0,17.307c-3.656,2.925 -8.043,5.118 -14.137,5.118Z" style="fill:#545454;fill-rule:nonzero;"/><path d="M720.507,590.835c-3.656,-2.194 -9.019,-3.656 -14.869,-3.656c-13.162,0 -23.156,4.631 -31.443,19.743l-0.488,0l-1.462,-17.306l-39.732,0l0,125.044l45.582,0l0,-64.594c3.168,-16.087 10.237,-23.4 25.106,-23.4c4.875,0 9.994,1.219 13.406,3.656l3.9,-39.487Z" style="fill:#545454;fill-rule:nonzero;"/><path d="M814.107,594.491l-26.812,0l0,-28.275l-30.957,0l-11.7,27.056l-17.306,1.463l0,27.787l14.625,5.607l0,41.193c0,30.713 10.969,47.532 43.144,47.532c10.969,0 20.962,-2.194 29.494,-5.85l-2.682,-27.057c-3.168,0.732 -6.581,0.975 -9.506,0.975c-9.506,0 -15.112,-4.631 -15.112,-13.162l0,-46.069l26.812,0l0,-31.2Z" style="fill:#545454;fill-rule:nonzero;"/><path d="M908.195,675.172c-3.413,4.875 -9.507,8.044 -17.55,8.044c-9.75,0 -14.869,-5.362 -14.869,-19.256l0,-74.344l-45.581,0l0,74.1c0,32.663 16.087,53.381 44.362,53.381c14.869,0 27.056,-3.9 36.563,-12.675l0.487,0l1.219,10.238l40.95,0l0,-125.044l-45.581,0l0,85.556Z" style="fill:#545454;fill-rule:nonzero;"/><path d="M1054.69,716.366c31.932,0 48.019,-20.719 48.019,-53.381l0,-22.425c0,-32.906 -16.087,-53.381 -44.119,-53.381c-15.112,0 -27.543,4.143 -37.293,12.918l-0.488,0l-0.731,-10.481l-40.95,0l0,152.344l45.581,0l0,-33.881l0.488,0c8.531,5.85 18.768,8.287 29.493,8.287Zm-29.981,-85.8c3.656,-4.875 9.506,-7.8 17.55,-7.8c9.994,0 14.869,5.119 14.869,19.256l0,21.207c0,15.112 -5.606,19.987 -16.088,19.987c-7.556,0 -12.675,-2.681 -16.331,-7.312l0,-45.338Z" style="fill:#545454;fill-rule:nonzero;"/></g><g><path d="M1357.21,615.697c-10.237,-19.256 -26.325,-28.518 -50.456,-28.518c-33.638,0 -52.894,17.55 -52.894,40.462c0,43.388 61.669,37.05 61.669,52.406c0,5.363 -3.656,7.557 -11.7,7.557c-8.044,0 -19.256,-4.388 -25.838,-13.65l-26.325,15.356c11.7,19.012 28.275,27.787 53.625,27.787c30.957,0 52.894,-18.525 52.894,-41.681c0,-43.387 -61.425,-38.025 -61.425,-51.675c0,-4.631 3.413,-7.069 11.944,-7.069c8.287,0 17.55,2.194 22.912,10.969l25.594,-11.944Z" style="fill:#f5d6ba;fill-rule:nonzero;"/><path d="M1452.27,594.491l-26.813,0l0,-28.275l-30.956,0l-11.7,27.056l-17.306,1.463l0,27.787l14.625,5.607l0,41.193c0,30.713 10.968,47.532 43.143,47.532c10.969,0 20.963,-2.194 29.494,-5.85l-2.681,-27.057c-3.169,0.732 -6.581,0.975 -9.506,0.975c-9.507,0 -15.113,-4.631 -15.113,-13.162l0,-46.069l26.813,0l0,-31.2Z" style="fill:#f5d6ba;fill-rule:nonzero;"/><path d="M1472.99,594.491l0,120.169l45.582,0l0,-120.169l-45.582,0Zm3.657,-39.487l0,27.3l38.268,0l0,-27.3l-38.268,0Z" style="fill:#f5d6ba;fill-rule:nonzero;"/><path d="M1633.87,590.835c-3.656,-2.194 -9.018,-3.656 -14.868,-3.656c-13.163,0 -23.157,4.631 -31.444,19.743l-0.488,0l-1.462,-17.306l-39.731,0l0,125.044l45.581,0l0,-64.594c3.169,-16.087 10.237,-23.4 25.106,-23.4c4.875,0 9.994,1.219 13.406,3.656l3.9,-39.487Z" style="fill:#f5d6ba;fill-rule:nonzero;"/><path d="M1729.41,596.197l-26.325,0l0,-0.243c0,-9.507 3.9,-13.163 25.35,-13.65l-2.193,-28.275c-49.969,0.487 -66.544,16.331 -66.544,42.168l-12.919,0l0,30.957l12.919,0l0,87.506l45.581,0l0,-87.506l24.131,0l0,-30.957Z" style="fill:#f5d6ba;fill-rule:nonzero;"/><path d="M1833.25,590.835c-3.656,-2.194 -9.019,-3.656 -14.869,-3.656c-13.162,0 -23.156,4.631 -31.444,19.743l-0.487,0l-1.463,-17.306l-39.731,0l0,125.044l45.581,0l0,-64.594c3.169,-16.087 10.238,-23.4 25.107,-23.4c4.875,0 9.993,1.219 13.406,3.656l3.9,-39.487Z" style="fill:#f5d6ba;fill-rule:nonzero;"/><path d="M1984.13,589.616l-47.531,0l-20.719,65.325l-25.837,-65.325l-50.944,0l54.112,105.788l-0.731,1.706c-4.875,11.212 -12.919,15.112 -28.031,16.331l2.194,29.494c35.343,-0.731 54.112,-11.456 68.493,-43.631l48.994,-109.688Z" style="fill:#f5d6ba;fill-rule:nonzero;"/></g></g></svg>